<svg fill="#ffffff" version="1.1" id="Capa_1" xmlns="http://www.w3.org/2000/svg" xmlns:xlink="http://www.w3.org/1999/xlink" width="800px" height="800px" viewBox="0 0 594.506 594.506" xml:space="preserve">
<g>
	<g>
		<path d="M495.081,287.929h-20.738V177.59c0-23.889-4.688-47.085-13.934-68.945c-8.922-21.093-21.684-40.026-37.934-56.277    c-16.25-16.25-35.186-29.012-56.279-37.934C344.337,5.188,321.14,0.5,297.252,0.5c-23.888,0-47.085,4.688-68.945,13.935    c-21.093,8.921-40.027,21.685-56.278,37.934c-16.25,16.25-29.013,35.184-37.934,56.277c-9.246,21.861-13.935,45.057-13.935,68.945    v110.339H99.424c-32.058,0-58.14,26.083-58.14,58.141v189.795c0,32.059,26.082,58.141,58.14,58.141h395.657    c32.059,0,58.141-26.082,58.141-58.141V346.07C553.222,314.012,527.14,287.929,495.081,287.929z M510.382,535.865    c0,8.449-6.852,15.301-15.301,15.301H99.424c-8.45,0-15.3-6.852-15.3-15.301V346.07c0-8.451,6.85-15.301,15.3-15.301h20.738h21.42    h21.42h268.501h21.42h21.42h20.738c8.449,0,15.301,6.85,15.301,15.301V535.865z M163.002,177.59    c0-74.145,60.105-134.25,134.251-134.25c74.144,0,134.25,60.106,134.25,134.25v110.339h-268.5V177.59z" fill="#ffffff"/>
		<path d="M495.081,594.506H99.424c-32.334,0-58.64-26.306-58.64-58.641V346.07c0-32.335,26.306-58.641,58.64-58.641h20.237V177.59    c0-23.955,4.702-47.217,13.974-69.14c8.945-21.151,21.744-40.138,38.041-56.436c16.297-16.296,35.286-29.095,56.437-38.041    C250.034,4.702,273.296,0,297.252,0c23.956,0,47.216,4.702,69.138,13.974c21.155,8.947,40.144,21.746,56.438,38.041    c16.295,16.295,29.094,35.283,38.04,56.436c9.272,21.921,13.974,45.184,13.974,69.14v109.839h20.238    c32.335,0,58.641,26.306,58.641,58.641v189.795C553.722,568.2,527.416,594.506,495.081,594.506z M99.424,288.429    c-31.783,0-57.64,25.858-57.64,57.641v189.795c0,31.783,25.857,57.641,57.64,57.641h395.657c31.783,0,57.641-25.857,57.641-57.641    V346.07c0-31.783-25.857-57.641-57.641-57.641h-21.238V177.59c0-23.822-4.675-46.953-13.895-68.75    c-8.896-21.034-21.623-39.915-37.826-56.118c-16.203-16.203-35.085-28.93-56.12-37.827C344.204,5.675,321.073,1,297.252,1    c-23.822,0-46.953,4.675-68.75,13.895c-21.032,8.896-39.913,21.622-56.119,37.827c-16.205,16.206-28.932,35.086-37.827,56.118    c-9.22,21.799-13.895,44.93-13.895,68.75v110.839H99.424z M495.081,551.666H99.424c-8.712,0-15.8-7.088-15.8-15.801V346.07    c0-8.713,7.088-15.801,15.8-15.801h395.657c8.713,0,15.801,7.088,15.801,15.801v189.795    C510.882,544.578,503.794,551.666,495.081,551.666z M99.424,331.27c-8.161,0-14.8,6.64-14.8,14.801v189.795    c0,8.161,6.639,14.801,14.8,14.801h395.657c8.161,0,14.801-6.64,14.801-14.801V346.07c0-8.161-6.64-14.801-14.801-14.801H99.424z     M432.003,288.429h-269.5V177.59c0-74.302,60.449-134.75,134.751-134.75c74.301,0,134.75,60.449,134.75,134.75V288.429z     M163.502,287.429h267.5V177.59c0-73.75-60-133.75-133.75-133.75c-73.75,0-133.751,60-133.751,133.75V287.429z" fill="#ffffff"/>
	</g>
</g>
</svg>